# Blender 3.5.1
# www.blender.org
mtllib base2.mtl
o Cube
v -4.115437 -0.494736 4.115437
v -4.115437 0.476233 5.086406
v -5.086405 0.476233 4.115437
v -4.115437 -0.861793 5.086406
v -3.389904 0.109176 3.389903
v -5.086405 -0.861793 4.115437
v -4.115437 -0.494736 -4.115438
v -5.086405 0.476233 -4.115438
v -4.115437 0.476233 -5.086407
v -3.389904 0.109176 -3.389906
v -4.115437 -0.861793 -5.086407
v -5.086405 -0.861793 -4.115438
v 4.115438 -0.494736 4.115437
v 5.086406 0.476233 4.115437
v 4.115438 0.476233 5.086406
v 3.389904 0.109176 3.389903
v 4.115438 -0.861793 5.086406
v 5.086406 -0.861793 4.115437
v 4.115438 -0.494736 -4.115438
v 4.115438 0.476233 -5.086407
v 5.086406 0.476233 -4.115438
v 3.389904 0.109176 -3.389906
v 5.086406 -0.861793 -4.115438
v 4.115438 -0.861793 -5.086407
v -4.115437 0.109176 4.115437
v -4.115437 0.109176 -4.115438
v 4.115438 0.109176 -4.115438
v 4.115438 0.109176 4.115437
v -3.389904 1.047503 3.389903
v -3.389904 1.047503 -3.389906
v 3.389904 1.047503 -3.389906
v 3.389904 1.047503 3.389903
vn -0.0000 -0.0000 -1.0000
vn -1.0000 -0.0000 -0.0000
vn 1.0000 -0.0000 -0.0000
vn -0.0000 -0.0000 1.0000
vn -0.5774 -0.5774 0.5773
vn -0.5774 0.5774 0.5773
vn -0.5774 -0.5774 -0.5774
vn -0.5774 0.5774 -0.5774
vn 0.5774 -0.5774 0.5773
vn 0.5774 0.5774 0.5773
vn 0.5774 -0.5774 -0.5774
vn 0.5774 0.5774 -0.5774
vn -0.7071 -0.7071 -0.0000
vn 0.7071 -0.0000 -0.7071
vn -0.7071 0.7071 -0.0000
vn 0.7071 -0.0000 0.7071
vn -0.0000 -0.7071 -0.7071
vn -0.0000 0.7071 -0.7071
vn -0.7071 -0.0000 0.7071
vn 0.7071 -0.7071 -0.0000
vn 0.7071 0.7071 -0.0000
vn -0.7071 -0.0000 -0.7071
vn -0.0000 -0.7071 0.7071
vn -0.0000 0.7071 0.7071
vn -0.0000 -1.0000 -0.0000
vn -0.0000 1.0000 -0.0000
vt 0.148862 0.726138
vt 0.625000 0.000000
vt 0.776949 0.976138
vt 0.148862 0.750000
vt 0.125000 0.726138
vt 0.776949 0.023862
vt 0.625000 0.976138
vt 0.375000 0.000000
vt 0.223051 0.976138
vt 0.833308 0.708308
vt 0.375000 1.000000
vt 0.223051 0.023862
vt 0.148862 0.523862
vt 0.125000 0.523862
vt 0.776949 0.226138
vt 0.776949 0.273862
vt 0.148862 0.500000
vt 0.833308 0.541692
vt 0.625000 0.273862
vt 0.223051 0.273862
vt 0.375000 0.250000
vt 0.223051 0.226138
vt 0.351138 0.726138
vt 0.375000 0.726138
vt 0.776949 0.726138
vt 0.776949 0.773862
vt 0.351138 0.750000
vt 0.666692 0.708308
vt 0.625000 0.773862
vt 0.223051 0.773862
vt 0.375000 0.750000
vt 0.223051 0.726138
vt 0.351138 0.523862
vt 0.351138 0.500000
vt 0.776949 0.476138
vt 0.375000 0.523862
vt 0.776949 0.523862
vt 0.666692 0.541692
vt 0.625000 0.523862
vt 0.223051 0.523862
vt 0.375000 0.500000
vt 0.223051 0.476138
vt 0.625000 0.023862
vt 0.625000 0.976138
vt 0.851138 0.726138
vt 0.625000 0.273862
vt 0.625000 0.226138
vt 0.851138 0.523862
vt 0.625000 0.523862
vt 0.625000 0.476138
vt 0.648862 0.523862
vt 0.625000 0.773862
vt 0.648862 0.726138
vt 0.833308 0.708308
vt 0.833308 0.541692
vt 0.666692 0.541692
vt 0.666692 0.708308
s 0
usemtl Material
f 17/30/1 2/3/1 15/26/1
f 23/40/2 14/25/2 21/37/2
f 22/38/3 32/57/3 16/28/3
f 6/12/3 8/15/3 3/6/3
f 11/20/4 20/35/4 9/16/4
f 1/1/5 2/4/5 3/5/5
f 4/7/6 25/44/6 6/11/6
f 7/13/7 8/14/7 9/17/7
f 26/46/8 11/19/8 12/21/8
f 13/23/9 14/24/9 15/27/9
f 28/52/10 17/29/10 18/31/10
f 19/33/11 20/34/11 21/36/11
f 27/49/12 23/39/12 24/41/12
f 1/1/13 8/14/13 7/13/13
f 4/8/14 3/6/14 2/2/14
f 26/47/15 6/12/15 25/43/15
f 9/16/16 12/22/16 11/20/16
f 7/13/17 20/34/17 19/33/17
f 27/50/18 11/20/18 26/46/18
f 23/40/19 20/35/19 24/42/19
f 19/33/20 14/25/20 13/23/20
f 28/53/21 23/40/21 27/51/21
f 15/26/22 18/32/22 17/30/22
f 13/23/23 2/4/23 1/1/23
f 25/44/24 17/30/24 28/52/24
f 19/33/25 1/1/25 7/13/25
f 5/10/26 26/48/26 25/45/26
f 22/38/26 26/48/26 10/18/26
f 16/28/26 27/51/26 22/38/26
f 5/10/26 28/53/26 16/28/26
f 30/55/26 32/57/26 31/56/26
f 5/10/2 30/55/2 10/18/2
f 16/28/4 29/54/4 5/10/4
f 10/18/1 31/56/1 22/38/1
f 17/30/1 4/9/1 2/3/1
f 23/40/2 18/32/2 14/25/2
f 22/38/3 31/56/3 32/57/3
f 6/12/3 12/22/3 8/15/3
f 11/20/4 24/42/4 20/35/4
f 1/1/13 3/5/13 8/14/13
f 4/8/14 6/12/14 3/6/14
f 26/47/15 12/22/15 6/12/15
f 9/16/16 8/15/16 12/22/16
f 7/13/17 9/17/17 20/34/17
f 27/50/18 24/42/18 11/20/18
f 23/40/19 21/37/19 20/35/19
f 19/33/20 21/37/20 14/25/20
f 28/53/21 18/32/21 23/40/21
f 15/26/22 14/25/22 18/32/22
f 13/23/23 15/27/23 2/4/23
f 25/44/24 4/9/24 17/30/24
f 19/33/25 13/23/25 1/1/25
f 5/10/26 10/18/26 26/48/26
f 22/38/26 27/51/26 26/48/26
f 16/28/26 28/53/26 27/51/26
f 5/10/26 25/45/26 28/53/26
f 30/55/26 29/54/26 32/57/26
f 5/10/2 29/54/2 30/55/2
f 16/28/4 32/57/4 29/54/4
f 10/18/1 30/55/1 31/56/1
